<?xml version="1.0" encoding="UTF-8"?> <svg xmlns="http://www.w3.org/2000/svg" width="948.04331" height="593.6183" viewBox="0 0 948.04331 593.6183"><defs><style> .cls-1 { fill: #fff; } .cls-2 { fill: #fe5c01; } .cls-3 { fill: #424242; } .cls-4 { fill: silver; } .cls-5 { fill: #1a1a1a; } .cls-6 { fill: #2c2c2c; } </style></defs><g id="Layer_2" data-name="Layer 2"><g id="WEB_DESIGN_AND_BUILD" data-name="WEB DESIGN AND BUILD"><g><path class="cls-1" d="M284.31853,89.68471H602.6728a26.38194,26.38194,0,0,1,26.38194,26.38194v172.577a26.38183,26.38183,0,0,1-26.38183,26.38183H284.31927a26.38257,26.38257,0,0,1-26.38257-26.38257V116.06654A26.38183,26.38183,0,0,1,284.31853,89.68471Z"></path><path class="cls-2" d="M664.38347,539.944v-2.34868s-5.487-3.42751-23.79079-3.42751c-18.30427,0-21.28449,4.24657-21.28449,4.24657v51.15365s5.99257,2.94341,22.41211,2.94341,22.33022-2.97364,22.33022-2.97364l.85152-8.3615s20.29423-1.959,20.29423-20.47339S673.63382,541.75346,664.38347,539.944Zm.30494,34.03511V547.398s12.94675-1.71588,13.53289,9.46541C678.90523,569.88,664.68841,573.97915,664.68841,573.97915Z"></path><path class="cls-2" d="M796.40856,297.91848s-37.59478,2.92834-63.34455,30.01925c-25.74966,27.09026-44.9919,76.12307-47.19962,82.96789-2.20707,6.84483-16.09953,40.95748,11.89964,58.78731,0,0,11.78391,5.48205,37.81561,7.88249,0,0,.02376,37.922-1.37571,55.9014-1.39947,17.97864-5.2591,44.99551-5.2591,44.99551H905.00827s1.58785-41.0488,1.41591-59.92288c-.17258-18.87323-.64-39.40983-.64-39.40983s18.9042-15.37678,18.057-37.58332c-.84643-22.20655-4.50835-54.37825-13.2431-80.7255-8.73465-26.34737-20.57977-46.15919-41.92832-55.4541-17.184-7.48124-36.75843-8.89-36.75843-8.89Z"></path><path class="cls-3" d="M406.4194,353.50983s-37.19277,1.92154-53.35987,10.43769c-16.16784,8.51615-35.30645,13.72062-51.12692,52.42213-15.81982,38.7016-17.56009,45.824-20.21733,59.016-2.65659,13.19272-7.1066,38.3607-4.8485,55.1448,2.25735,16.78346,8.04287,36.34709,28.56016,44.5252a50.56607,50.56607,0,0,0,17.80607,3.41669c9.28048-.13089,211.41157,0,211.41157,0s10.90291-3.33756,14.61585-5.95812a46.84288,46.84288,0,0,0,17.67592-25.10177c3.97683-14.319,3.61662-31.257,2.9276-38.54844-.68891-7.29138-2.734-23.96188-5.69419-35.53514-2.9607-11.57316-11.75655-40.0823-16.60505-50.87808-4.84915-10.79515-12.87632-28.7198-21.65054-37.96952-8.77432-9.24962-25.90155-19.90157-36.73042-23.27583-10.82813-3.37426-28.01285-7.71936-43.73912-7.6956S406.4194,353.50983,406.4194,353.50983Z"></path><path class="cls-2" d="M325.48256,424.44922H524.90313a15.17461,15.17461,0,0,1,15.17461,15.17461V563.35446A15.17472,15.17472,0,0,1,524.903,578.52918H325.48326a15.17472,15.17472,0,0,1-15.17472-15.17472V439.62324A15.174,15.174,0,0,1,325.48256,424.44922Z"></path><path class="cls-4" d="M137.4417,519.53324s-3.64179-.2761-4.05747,2.34443c-.41643,2.62064,2.51913,2.88242,8.38876,3.17071,5.87048.2884,115.82789-.13089,115.82789-.13089s7.42513-3.37775,7.59123-8.18818c.16611-4.80958.22943-25.24987.22943-25.24987s-1.82374-8.00416-9.69616-8.98147c-7.87253-.97658-119.50763-.18191-119.50763-.18191s-2.73212,1.44328-2.83352,3.15416c-.1014,1.71153,4.05747,2.58819,4.05747,2.58819Z"></path><path class="cls-2" d="M260.67592,534.13985l3.21526-1.09314,1.467-2.92326-1.08869-3.59859-4.33217-2.13156L101.76621,525.27s-11.50273,4.1545-12.60011,12.82021c-1.09675,8.665-.08772,38.85392-.08772,38.85392s2.34507,13.62357,13.10714,14.63823c10.762,1.01475,159.54324-.102,159.54324-.102s4.258-1.95761,3.62946-5.59142c-.6291-3.6338-5.66036-3.91361-5.66036-3.91361Z"></path><path class="cls-1" d="M404.48705,361.0616s1.83742-7.49131,2.56527-12.48937c.72773-4.99807,1.47637-16.64759,1.47637-16.64759a26.25532,26.25532,0,0,1-11.351-20.37909l-.92121-1.11754s-14.52027,5.57985-16.83946-9.20008c-2.3193-14.77983,14.7043-12.74394,16.56984-11.35094l.02015-7.97966s10.6354-3.16933,17.92826-9.58193a58.3487,58.3487,0,0,0,11.80343-15.28758s5.16767,11.36251,13.56375,16.618a103.12208,103.12208,0,0,0,16.3577,8.25151l.02005,7.97966s15.33944-5.1664,16.754,9.59115c0,0,.68393,10.724-7.23176,11.43091-7.91633.70622-10.11694-.41928-10.11694-.41928s-2.2372,13.67024-11.758,21.44422c0,0,1.1816,19.22783,2.63718,23.88859,0,0,2.865,5.372,1.26424,8.68077-1.60153,3.30881-8.17387,11.305-21.49016,10.60242-13.31576-.7026-18.19523-6.78236-19.31925-7.8301C405.29465,366.21718,404.48705,361.0616,404.48705,361.0616Z"></path><circle class="cls-1" cx="429.66296" cy="508.0658" r="16.21241" transform="translate(-165.24961 806.0929) rotate(-76.38836)"></circle><polygon class="cls-1" points="137.442 519.533 137.442 488.058 254.247 488.058 257.851 490.022 258.731 493.087 258.731 515.631 256.8 518.523 253.587 519.525 137.442 519.533"></polygon><polygon class="cls-1" points="97.929 541.012 98.96 537.413 102.206 534.653 106.378 534.139 259.937 534.139 259.937 582.717 102.605 582.717 98.982 579.479 97.957 576.4 97.929 541.012"></polygon><path class="cls-2" d="M390.90028,287.59s-3.43684-18.17562-1.21247-27.79277c2.225-9.61788,8.44848-21.74418,35.45527-22.38919,0,0,17.5846.42863,25.85976,6.73981,8.27526,6.31121,11.77967,14.48932,10.89654,25.31469-.88313,10.826-1.69572,19.21986-1.69572,19.21986l-4.52351,1.19455-.02005-7.97966s-21.67153-5.58208-29.92145-24.86951c0,0-9.14471,21.22775-29.73169,24.86951l-.63429,7.68256Z"></path><path class="cls-2" d="M392.74556,312.29991s3.69936,20.09864-4.17677,26.33007-20.057,13.51559-20.23675,19.41555c0,0,13.24958-2.31717,20.62952-3.07365,7.37973-.75584,17.45784-1.462,17.45784-1.462L409.09318,332.28s-11.42434-7.48135-12.06648-21.8002Z"></path><path class="cls-2" d="M458.907,311.54555s-2.47384,10.37872-.42215,18.67117c2.051,8.29245,8.678,12.1629,13.05684,15.13441,4.37894,2.97226,10.02562,6.41122,11.80905,13.41133,0,0-17.56147-3.81572-27.73378-4.53423l-10.1723-.7184L443.32739,331.924s9.80128-6.70608,11.758-21.44422Z"></path><path class="cls-1" d="M777.75468,391.89429,753.541,380.62884s-13.62707-2.12074-19.07752,6.26516c0,0-16.14758,2.1639-15.67377,14.49949,0,0,12.10976-1.15859,18.50368,2.23359,6.39393,3.39293,17.76142,11.01736,17.76142,11.01736S768.11091,396.47519,777.75468,391.89429Z"></path><path class="cls-1" d="M818.59282,409.45365s4.92541-10.89506,17.73554-4.09627c0,0,6.41546-6.09471,18.57486-.01506,0,0,7.44241-3.8784,13.312,1.46778,5.87037,5.34607,11.32082,14.36053,11.32082,14.36053s2.72554,10.06306-7.966,10.69162l-.41929,1.04849s1.25776,7.76169-8.49091,8.23062c-9.748.46956-13.44017-8.02134-13.44017-8.02134s-1.654,8.281-8.46715,7.8617c-6.814-.41929-8.176-4.92615-8.281-7.54668-.105-2.62064,1.15275-7.02323.105-9.74878C831.52811,420.96072,824.63079,410.00086,818.59282,409.45365Z"></path><path class="cls-5" d="M844.94517,401.67393a27.37259,27.37259,0,0,0-19.07752-7.57765c-11.845.13524-16.352,11.35105-16.352,11.35105l9.07714,4.645s2.9082-5.76908,6.61105-6.46521c3.70361-.69539,10.30755,1.611,10.30755,1.611s5.02034-4.19268,10.21473-3.14483Z"></path><path class="cls-1" d="M829.62376,263.72882s15.15393,6.81386,17.96284-8.01922c2.80965-14.83233-15.93555-12.61093-15.93555-12.61093s-21.57077-13.7062-27.46129-17.4501C798.3,221.90476,788.52892,212.366,788.52892,212.366l-7.69772,39.522s-6.7255,30.61122,16.22034,31.44609l-.643,14.58434s-10.47789,29.41879,3.56847,29.53239c14.04561.11434,30.85782-27.57712,31.034-29.25555.17544-1.67918.52207-32.71329.52207-32.71329Z"></path><path class="cls-5" d="M885.16334,314.91906s3.895-11.6351-3.78336-18.4324c-7.67821-6.79742-21.04509-9.01383-22.81782-18.38786-1.772-9.37414,5.68921-24.594,11.25251-37.17984,5.56405-12.585,5.25263-25.76992-3.54174-31.11674-8.79373-5.34618-23.5586-11.73-29.6584-11.62354,0,0-12.85828-10.32483-26.35234-8.81823-13.49332,1.5067-23.31326,2.65659-28.92334,13.2676-5.61072,10.61164-4.96784,24.31858,1.48867,35.98317l5.7014-27.08666s21.94042,23.59955,43.00418,30.89591c0,0,6.24936-.11075,9.60346,1.00754s7.75956,6.33856,6.25583,13.1626c-1.50374,6.82319-9.38984,10.9605-15.85929,8.89142l.30346,30.07759s17.686,1.53683,28.727,6.14944C871.60458,306.32092,885.16334,314.91906,885.16334,314.91906Z"></path><path class="cls-6" d="M789.47675,282.57977s-7.23462,8.89514-.63863,16.45837l7.57044-1.11966,1.12263-13.95939Z"></path><path class="cls-1" d="M788.52892,211.52456s21.01274,22.59274,41.65286,30.39685c-6.01133-4.8607-28.7794-23.73828-33.13024-34.27228-4.3609-10.56074,8.24419-16.68206,11.63648-18.111-12.67924,1.43469-21.96131,2.89886-27.34981,13.08994-5.61008,10.611-4.9672,24.31784,1.49,35.98317Z"></path><path class="cls-1" d="M789.476,282.57977s-7.23388,8.89514-.63789,16.45762l4.358-.64436c-3.216-4.51333-.694-13.42639-.14595-15.20124Z"></path><path class="cls-1" d="M451.00284,244.14789c-3.20444-2.4436-7.80051-3.99846-12.23556-4.99519.19421.0856,12.43475,5.50073,12.71234,18.95024.27981,13.55728-24.73862-1.07512-24.73862-1.07512s.15253,1.101.39776,2.89314c9.05477,16.95168,28.52134,21.97637,28.52134,21.97637l.02005,7.97966,4.52415-1.19455s.812-8.39385,1.69508-19.21986C462.78187,258.63721,459.2781,250.4591,451.00284,244.14789Z"></path><path class="cls-1" d="M483.35071,358.76246c-1.78343-7.00011-7.43011-10.43907-11.80905-13.41133-4.37883-2.97151-11.00579-6.842-13.05748-15.13441-2.051-8.29245.42279-18.67117.42279-18.67117l-3.82219-1.06578a34.24219,34.24219,0,0,1-4.40195,12.94463c-.39118,2.69393-1.55264,13.69251,4.42847,19.79379,2.63782,2.691,3.79641,7.03819,4.233,11.369C469.56337,355.76867,483.35071,358.76246,483.35071,358.76246Z"></path><path class="cls-5" d="M803.92586,284.44234c-2.28907,0-4.48756-.05674-6.2012-.12654a24.86658,24.86658,0,0,1-9.59349-1.99494c-4.43855-2.05391-7.13535-5.87111-8.25141-11.6717-1.67853-8.77866-.38609-17.70466.85651-26.3395l.17544-1.21534c.81482-5.63235,6.39106-31.48342,6.59461-31.98183a1.12351,1.12351,0,0,1,1.43967-.61849,1.10677,1.10677,0,0,1,.61127,1.43977c-.169.73782-5.58335,25.44769-6.45428,31.47695l-.17554,1.2147c-1.22181,8.45209-2.47883,17.19544-.87083,25.60944.96936,5.04559,3.25843,8.34284,7.0017,10.07749a22.74165,22.74165,0,0,0,8.76478,1.79139,127.938,127.938,0,0,0,12.803-.07414,1.08845,1.08845,0,0,1,1.17938,1.022,1.1048,1.1048,0,0,1-1.02547,1.183C808.70881,284.3856,806.27167,284.44234,803.92586,284.44234Z"></path><path class="cls-5" d="M832.29828,244.204a1.09252,1.09252,0,0,1-.51921-.12951c-37.1583-19.82965-45.6701-33.83645-46.01451-34.42619a1.10718,1.10718,0,0,1,1.91-1.12041c.07764.13663,8.67366,14.12974,45.14379,33.5942a1.10578,1.10578,0,0,1-.52,2.08191Z"></path><path class="cls-5" d="M812.69657,237.2196c-.85873-.251-1.49376.0489-2.15107,3.17368-.73347,3.48351.09928,4.22132.89257,4.29112.79392.06979,1.7252-.91411,2.01064-3.434C813.7335,238.73129,813.822,237.54756,812.69657,237.2196Z"></path><path class="cls-5" d="M789.39975,233.49447c-.85-.27971-1.495-.00138-2.25736,3.09879-.85077,3.457-.04317,4.22281.74715,4.31923.79043.09631,1.7548-.85576,2.1252-3.36419C790.38428,235.03989,790.51305,233.86051,789.39975,233.49447Z"></path><path class="cls-5" d="M785.589,226.756a1.10812,1.10812,0,0,1-.61128-2.03005c1.53111-1.00755,4.08768-2.14163,8.58955-.32659a1.106,1.106,0,0,1-.8285,2.051c-3.46272-1.39087-5.26058-.7271-6.5385.12293A1.11814,1.11814,0,0,1,785.589,226.756Z"></path><path class="cls-5" d="M836.196,266.5896c-.274,0-.548-.00647-.82119-.02811a12.64469,12.64469,0,0,1-6.38385-2.22288,1.10724,1.10724,0,0,1,1.26349-1.81865,10.43137,10.43137,0,0,0,5.26069,1.83668c.23144.01369.45652.02079.68086.02079a10.42616,10.42616,0,0,0,.67459-20.83,10.64606,10.64606,0,0,0-5.93433,1.398,1.10477,1.10477,0,1,1-1.10958-1.91072A12.63577,12.63577,0,0,1,848.80193,254.774,12.65639,12.65639,0,0,1,836.196,266.5896Z"></path><path class="cls-5" d="M837.96585,261.18232a1.10119,1.10119,0,0,1-.7795-.32287l-6.9527-6.94983a1.10578,1.10578,0,0,1,.23866-1.74823l9.33383-5.21455a1.10659,1.10659,0,1,1,1.08158,1.93088l-8.05581,4.50187,5.91354,5.91354a1.106,1.106,0,0,1-.7796,1.88919Z"></path><path class="cls-5" d="M800.64653,328.56342a18.75791,18.75791,0,0,1-3.56773-.34376,6.18257,6.18257,0,0,1-4.34722-3.157c-4.22069-7.38132,1.91008-25.437,2.58394-27.3722l1.08879-14.47063a1.12661,1.12661,0,0,1,1.18723-1.01826,1.10168,1.10168,0,0,1,1.01837,1.18722l-1.096,14.61457c-.12654.47392-6.72762,19.20045-2.865,25.96329a4.02109,4.02109,0,0,0,2.85134,2.08266c19.06669,3.68345,32.49467-28.28831,32.62842-28.61119a1.107,1.107,0,1,1,2.05021.83561C831.63811,299.58323,819.53779,328.56342,800.64653,328.56342Z"></path><path class="cls-5" d="M801.04641,266.57952a11.56474,11.56474,0,0,1-4.42423-.98378,1.10276,1.10276,0,0,1-.58974-1.44625,1.114,1.114,0,0,1,1.44624-.59685c2.38835.99673,4.42487,1.06716,6.03287.24236,2.732-1.4053,3.58852-4.97578,3.59573-5.011a1.12006,1.12006,0,0,1,1.32756-.8321,1.10789,1.10789,0,0,1,.83571,1.3232c-.04253.18626-1.08169,4.5932-4.72631,6.47879A7.54771,7.54771,0,0,1,801.04641,266.57952Z"></path><path class="cls-5" d="M831.15337,298.96188a1.11152,1.11152,0,0,1-1.10894-1.13049l.758-32.06669a1.11,1.11,0,0,1,2.21938.0489l-.75871,32.06669A1.115,1.115,0,0,1,831.15337,298.96188Z"></path><path class="cls-5" d="M789.66237,256.81707a1.10156,1.10156,0,0,1-1.07447-.8529c-.61127-2.5954-1.78355-8.80667.40051-10.49232,1.334-1.02547,4.13658-.08411,6.29253.90975l2.51415-13.78967a1.14075,1.14075,0,0,1,1.28512-.89172,1.10155,1.10155,0,0,1,.89172,1.28513l-2.77369,15.23221a1.10884,1.10884,0,0,1-.60417.79753,1.13037,1.13037,0,0,1-.99736-.01443c-2.19849-1.14766-4.75432-1.9733-5.30227-1.75183-.61775.48473-.42141,4.48756.4422,8.20982a1.10165,1.10165,0,0,1-.82119,1.33042A1.21746,1.21746,0,0,1,789.66237,256.81707Z"></path><g><path class="cls-5" d="M407.02644,313.82592c-7.54966,0-13.69475-7.7358-13.69475-17.24147s6.14509-17.23722,13.69475-17.23722c7.55675,0,13.70184,7.73156,13.70184,17.23722a18.90982,18.90982,0,0,1-.51984,4.6981,1.086,1.086,0,0,1-1.33487.81482,1.10147,1.10147,0,0,1-.81408-1.334,16.74691,16.74691,0,0,0,.44952-4.1789c0-8.28312-5.14836-15.02516-11.48257-15.02516-6.32785,0-11.47547,6.742-11.47547,15.02516,0,8.28736,5.14762,15.02941,11.47547,15.02941a9.63934,9.63934,0,0,0,7.94295-4.19269,1.10812,1.10812,0,0,1,1.76976,1.334A11.91448,11.91448,0,0,1,407.02644,313.82592Z"></path><path class="cls-5" d="M444.43708,313.82592c-7.54965,0-13.69474-7.7358-13.69474-17.24147s6.14509-17.23722,13.69474-17.23722c7.55676,0,13.70185,7.73156,13.70185,17.23722S451.99384,313.82592,444.43708,313.82592Zm0-32.26663c-6.32711,0-11.47547,6.742-11.47547,15.02516,0,8.28736,5.14836,15.02941,11.47547,15.02941,6.33506,0,11.48257-6.74205,11.48257-15.02941C455.91965,288.30133,450.77214,281.55929,444.43708,281.55929Z"></path><path class="cls-5" d="M431.396,297.67685a1.08574,1.08574,0,0,1-.75871-.30208c-1.96609-1.85038-3.90492-2.78091-5.74447-2.58458a6.32783,6.32783,0,0,0-4.04525,2.12074,1.10776,1.10776,0,0,1-1.74175-1.36924,8.50362,8.50362,0,0,1,5.62514-2.96006c2.52136-.16175,4.99308.88821,7.42311,3.18514a1.10431,1.10431,0,0,1-.75807,1.91008Z"></path></g><path class="cls-5" d="M524.90589,579.6359H325.48315a16.30553,16.30553,0,0,1-16.28578-16.2829V439.62394a16.30481,16.30481,0,0,1,16.28578-16.27933H524.90589a16.29928,16.29928,0,0,1,16.27931,16.27933V563.353A16.3,16.3,0,0,1,524.90589,579.6359ZM325.48315,425.55679a14.08023,14.08023,0,0,0-14.06651,14.06715V563.353a14.08292,14.08292,0,0,0,14.06651,14.07084H524.90589a14.082,14.082,0,0,0,14.06-14.07084V439.62394a14.07926,14.07926,0,0,0-14.06-14.06715Z"></path><path class="cls-5" d="M425.47539,519.818a17.31848,17.31848,0,1,1,17.31847-17.31847A17.34177,17.34177,0,0,1,425.47539,519.818Zm0-32.42478a15.10636,15.10636,0,1,0,15.0992,15.10631A15.12414,15.12414,0,0,0,425.47539,487.39325Z"></path><path class="cls-5" d="M525.55163,579.57979a1.106,1.106,0,1,1,0-2.21206c19.41842,0,32.53711-8.84551,39.00581-26.2869,18.25188-49.22341-20.99184-150.13612-41.14734-167.46467-25.96413-22.32227-46.646-27.28077-78.03877-29.001a1.10425,1.10425,0,0,1-1.03926-1.16569,1.15561,1.15561,0,0,1,1.1657-1.04711c31.884,1.75256,52.91056,6.79879,79.35922,29.53536,20.45036,17.58524,60.291,119.9794,41.77876,169.91182C559.80959,570.24961,545.98831,579.57979,525.55163,579.57979Z"></path><path class="cls-5" d="M326.12975,579.6359c-23.23923,0-38.767-10.09536-46.14763-30.00567-18.54749-50.02381,21.39172-149.64056,42.38283-167.6925,25.74616-22.13325,51.22545-27.70875,83.9941-29.53536a1.16082,1.16082,0,0,1,1.1657,1.0435,1.10483,1.10483,0,0,1-1.03916,1.1693c-32.31266,1.79787-57.40512,7.27557-82.67376,29.001C303.12928,401.40134,263.77323,499.564,282.054,548.86145c7.0296,18.95169,21.862,28.56239,44.07579,28.56239a1.106,1.106,0,1,1,0,2.21206Z"></path><path class="cls-5" d="M859.39279,404.3196a1.10092,1.10092,0,0,1-1.0888-.91972c-2.97-17.31561-.54721-42.426-.52642-42.67844a1.10785,1.10785,0,1,1,2.205.21787c-.02811.24883-2.41561,25.06806.49905,42.08806a1.10824,1.10824,0,0,1-.89893,1.27791A1.122,1.122,0,0,1,859.39279,404.3196Z"></path><path class="cls-5" d="M860.58659,442.51346a12.08216,12.08216,0,0,1-9.24177-4.34723c-2.2128-2.53493-3.4066-5.674-3.25906-6.724a.958.958,0,0,1,1.89629.274c.01443.67385,2.80255,8.88007,10.60454,8.88007,4.19979-.02811,6.94548-1.06,8.21693-3.06857,2.59826-4.08407-.86372-11.56679-2.93556-16.03695-.37888-.822-.71628-1.54192-.955-2.12445-1.8963-4.58238-4.03793-9.776-11.11-13.28765a21.23065,21.23065,0,0,0-17.82485-.4386.96931.96931,0,0,1-1.2916-.425.95659.95659,0,0,1,.42141-1.28513,22.92655,22.92655,0,0,1,19.55143.43509c7.71141,3.828,10.099,9.61418,12.02353,14.26709.23144.56163.55431,1.257.92683,2.05455,2.23295,4.82486,5.96975,12.90082,2.81623,17.8694-1.65033,2.59539-4.9305,3.92581-9.75514,3.95742Z"></path><path class="cls-5" d="M870.85457,433.18684a.95767.95767,0,0,1-.19708-1.89566c4.9794-1.0399,7.85163-2.92548,8.55423-5.60064,1.27071-4.89528-4.76863-12.28021-10.33119-17.11493-5.99055-5.229-14.24195-2.47893-14.34049-2.44807a.97457.97457,0,0,1-1.2147-.59324.95967.95967,0,0,1,.58974-1.2182c.3862-.12664,9.37552-3.15352,16.22968,2.81252,3.03409,2.64069,12.80291,11.82348,10.921,19.04591-.89893,3.43822-4.27043,5.7905-10.0149,6.99152A.97064.97064,0,0,1,870.85457,433.18684Z"></path><path class="cls-5" d="M809.27055,407.0654a1.10579,1.10579,0,0,1-.97668-1.62242c4.57952-8.70453,11.10359-12.93964,19.93837-12.93964,6.01855.018,12.13553,3.17792,18.28062,9.38634a1.10752,1.10752,0,1,1-1.57342,1.5591c-5.70936-5.77979-11.30639-8.71535-16.63019-8.73327-8.125,0-13.835,3.74019-18.06287,11.76015A1.10306,1.10306,0,0,1,809.27055,407.0654Z"></path><path class="cls-5" d="M851.81513,493.74539c-15.85069,0-34.012-3.88339-55.36839-11.82995a231.35177,231.35177,0,0,1-53.75328-28.66369,1.11813,1.11813,0,0,1-.45673-1.00458c.01368-.17193,1.70654-17.276,8.43415-31.77479A71.06823,71.06823,0,0,1,777.02832,390.937a1.08622,1.08622,0,0,1,.99747-.0524L822.92287,410.805a1.10684,1.10684,0,0,1-.89893,2.02294l-44.37066-19.68518c-2.76734,1.73093-17.08693,11.27542-24.97377,28.26381-5.84948,12.59874-7.802,27.23844-8.1674,30.42273A229.169,229.169,0,0,0,797.219,479.8436c22.66964,8.43851,41.71629,12.25857,58.03008,11.62651,9.90978-.36827,22.8106-1.35853,34.70737-5.77269,7.37411-2.73922,17.67667-8.09039,24.86091-18.05554,7.50065-10.39739,8.21693-23.37585,8.00618-33.52079-.42852-20.75966-4.93687-41.14744-8.82025-56.5903-1.57353-6.27885-3.3505-12.72528-5.2958-19.16885-11.63-38.54908-36.77211-58.42773-76.85876-60.7693a1.10968,1.10968,0,0,1-1.03915-1.16931,1.09287,1.09287,0,0,1,1.1658-1.0435c41.12644,2.40913,66.91428,22.80053,78.85285,62.34273,1.95251,6.47528,3.7439,12.95693,5.3238,19.26738,3.905,15.55943,8.44858,36.10473,8.89089,57.08225.21065,10.49232-.548,23.93388-8.42769,34.86129-7.51433,10.419-18.22388,15.99526-25.88639,18.83589-12.19164,4.52627-25.31753,5.53742-35.39491,5.91354Q853.595,493.74545,851.81513,493.74539Z"></path><path class="cls-5" d="M745.2076,478.72394c-19.98005,0-42.32035-2.22649-52.25029-11.07559-25.57783-22.78536-9.19361-57.23319,2.76659-82.38537.76593-1.61521,1.56621-3.33246,2.40193-5.13394,13.01367-28.00712,34.80517-74.88535,98.13826-83.30583a1.10546,1.10546,0,0,1,.29487,2.19117c-62.13144,8.26233-83.6007,54.44867-96.42461,82.04521-.84283,1.80868-1.64322,3.53251-2.41561,5.15122-11.658,24.52075-27.62814,58.10412-3.28718,79.78711,18.83589,16.78123,87.82849,8.34357,88.50956,8.24864a1.0759,1.0759,0,0,1,1.23623.96215,1.106,1.106,0,0,1-.955,1.23623A338.22784,338.22784,0,0,1,745.2076,478.72394Z"></path><path class="cls-5" d="M728.94261,579.57979A1.1468,1.1468,0,0,1,727.861,578.245c7.45833-35.64439,6.62261-100.00582,6.60829-100.65231a1.10978,1.10978,0,0,1,2.21928-.03458c.00711.64946.84293,65.25676-6.665,101.14363A1.10288,1.10288,0,0,1,728.94261,579.57979Z"></path><path class="cls-5" d="M905.00678,579.57979a1.11972,1.11972,0,0,1-1.10248-1.17291c2.61926-43.94193.79329-98.679.77961-99.22632a1.10311,1.10311,0,1,1,2.20485-.07764c.02089.55156,1.84676,55.38643-.7795,99.43772A1.10443,1.10443,0,0,1,905.00678,579.57979Z"></path><path class="cls-5" d="M784.17014,395.68848a1.10636,1.10636,0,0,1-.03447-2.21207c20.45747-.68181,43.92824-.96947,44.15979-.97307a1.10618,1.10618,0,1,1,.02821,2.21217c-.23165.0035-23.68153.2919-44.11832.973Z"></path><path class="cls-5" d="M692.02964,437.468a1.14529,1.14529,0,0,1-1.08095-1.33116c6.30621-30.36376,26.91843-34.88653,27.79647-35.06557,20.46468-4.57877,36.44849,12.11474,37.11577,12.82381a1.116,1.116,0,0,1-.04879,1.56632,1.09969,1.09969,0,0,1-1.56632-.0489c-.15464-.16536-15.84358-16.48286-35.03756-12.17806-.22434.046-20.09939,4.48755-26.097,33.35192A1.10276,1.10276,0,0,1,692.02964,437.468Z"></path><path class="cls-5" d="M718.95592,403.25892a1.1025,1.1025,0,0,1-1.03279-.71989c-.11933-.32287-2.78812-7.97743,9.172-13.9859,11.60922-5.82583,25.87281,2.381,26.47687,2.732a1.10529,1.10529,0,0,1,.39267,1.51307,1.12124,1.12124,0,0,1-1.51668.397c-.13312-.077-13.84218-7.95663-24.35539-2.66158-10.10612,5.07433-8.1745,10.99784-8.09039,11.24742a1.10969,1.10969,0,0,1-1.04626,1.47786Z"></path><path class="cls-5" d="M777.57627,393.0025a1.10011,1.10011,0,0,1-.67449-.22869c-.077-.05972-8.04149-6.07466-22.18565-10.36577-13.54656-4.12936-20.66823,5.94875-20.738,6.05016a1.10666,1.10666,0,1,1-1.82661-1.24992c.07764-.11222,8.11192-11.47175,23.21112-6.92109,14.55114,4.42063,22.55021,10.47439,22.88751,10.73119a1.10759,1.10759,0,0,1-.67386,1.98412Z"></path><path class="cls-5" d="M390.95777,312.82844c-.26676,0-.53363-.01007-.80039-.028a12.63424,12.63424,0,1,1,5.4706-24.35168,1.10644,1.10644,0,0,1-.81482,2.05741,10.4262,10.4262,0,1,0-4.51556,20.08931,10.75855,10.75855,0,0,0,5.4497-1.152,1.10906,1.10906,0,0,1,1.02547,1.96683A12.616,12.616,0,0,1,390.95777,312.82844Z"></path><path class="cls-5" d="M388.40841,307.1472a1.10425,1.10425,0,0,1-.67385-1.98052l6.299-4.86a1.10423,1.10423,0,1,1,1.34845,1.749l-6.299,4.86A1.07375,1.07375,0,0,1,388.40841,307.1472Z"></path><path class="cls-5" d="M394.14651,299.62205a1.0931,1.0931,0,0,1-.66017-.21787l-6.5456-4.842a1.10687,1.10687,0,1,1,1.32023-1.777l6.54572,4.842a1.10608,1.10608,0,0,1-.66018,1.99484Z"></path><path class="cls-5" d="M460.91984,312.82844a12.61836,12.61836,0,0,1-5.815-1.41813,1.10908,1.10908,0,0,1,1.02558-1.96683,10.868,10.868,0,0,0,5.4497,1.152,10.42645,10.42645,0,0,0,6.24353-18.2209,10.22727,10.22727,0,0,0-7.54955-2.58829,10.47458,10.47458,0,0,0-3.42029.8076,1.10749,1.10749,0,0,1-.87083-2.03662,12.63718,12.63718,0,1,1,5.738,24.24317C461.45347,312.81837,461.18671,312.82844,460.91984,312.82844Z"></path><path class="cls-5" d="M463.46209,307.1472a1.0702,1.0702,0,0,1-.67385-.23155l-6.43275-4.96932a1.1039,1.1039,0,1,1,1.34834-1.74822l6.43275,4.96857a1.10342,1.10342,0,0,1-.67449,1.98052Z"></path><path class="cls-5" d="M457.27521,299.95574a1.10611,1.10611,0,0,1-.66017-1.99483l7.00159-5.17573a1.10693,1.10693,0,1,1,1.32045,1.777l-7.0017,5.17572A1.10971,1.10971,0,0,1,457.27521,299.95574Z"></path><path class="cls-5" d="M425.9248,337.62965c-5.54824,0-13.49119-1.05645-19.8254-6.09185-4.88086-3.87691-8.11193-10.10622-9.88105-19.043a57.08606,57.08606,0,0,1-.7026-6.37664,1.10282,1.10282,0,0,1,1.02558-1.18013,1.08164,1.08164,0,0,1,1.17938,1.02548,54.53379,54.53379,0,0,0,.67449,6.1034c1.65764,8.399,4.62767,14.20027,9.08065,17.73629,5.8359,4.64209,13.25243,5.61442,18.449,5.61442a1.106,1.106,0,1,1,0,2.21207Z"></path><path class="cls-5" d="M396.20393,289.70218a1.10681,1.10681,0,0,1-1.10237-1.02907c-.01443-.14383-.2604-3.62024-.20355-6.798a1.10985,1.10985,0,0,1,2.21928.04242c-.05686,3.07217.18912,6.56651.18912,6.601a1.10485,1.10485,0,0,1-1.02548,1.18012A.55138.55138,0,0,1,396.20393,289.70218Z"></path><path class="cls-5" d="M396.0076,283.00267a1.10691,1.10691,0,0,1-.29551-2.174c20.96384-5.7798,28.9348-24.0497,29.0118-24.23235a1.10611,1.10611,0,0,1,2.03663.86372,48.09422,48.09422,0,0,1-30.458,25.50368A1.22288,1.22288,0,0,1,396.0076,283.00267Z"></path><path class="cls-5" d="M425.74215,337.62965a1.106,1.106,0,1,1,0-2.21207c5.19726,0,12.61306-.97233,18.4498-5.61442,4.45213-3.536,7.4229-9.33734,9.0798-17.73629a57.09629,57.09629,0,0,0,.73782-6.98791,1.039,1.039,0,0,1,1.173-1.03268,1.09968,1.09968,0,0,1,1.03194,1.17291,59.272,59.272,0,0,1-.76518,7.27557c-1.76986,8.93682-5.00018,15.16613-9.881,19.043C439.23335,336.5732,431.29039,337.62965,425.74215,337.62965Z"></path><path class="cls-5" d="M455.6601,289.76551a1.1137,1.1137,0,0,1-1.10969-1.11691c.028-2.76722.028-5.14762,0-6.73112a1.1099,1.1099,0,0,1,2.21938-.04242c.028,1.59792.028,4.00632,0,6.79444A1.11172,1.11172,0,0,1,455.6601,289.76551Z"></path><path class="cls-5" d="M455.6601,283.00267a48.871,48.871,0,0,1-30.93621-25.53551,1.10892,1.10892,0,0,1,2.03663-.878c.07764.18266,8.22414,18.45977,29.19435,24.23957a1.10691,1.10691,0,0,1-.29477,2.174Z"></path><path class="cls-5" d="M426.17078,376.20323c-8.9189,0-17.13583-3.70074-20.935-9.43163-1.93893-2.92835-2.38113-6.00487-1.25065-8.67006,2.82333-6.647,3.43461-26.01579,3.44108-26.20926a1.12451,1.12451,0,0,1,1.13843-1.07436,1.09811,1.09811,0,0,1,1.06716,1.13769c-.02079.81481-.62485,19.98366-3.61005,27.00965-.8285,1.95973-.456,4.29472,1.06069,6.58453,2.781,4.1998,9.76171,8.44138,19.08834,8.44138,8.93321,0,15.78015-2.60548,18.78625-7.15264a8.24586,8.24586,0,0,0,.878-7.87327c-2.98519-7.026-3.58925-26.19484-3.61-27.00965a1.09832,1.09832,0,0,1,1.068-1.13769,1.11963,1.11963,0,0,1,1.13759,1.07436c.00647.19347.61774,19.56226,3.44108,26.20926a10.429,10.429,0,0,1-1.0679,9.95879C444.7888,371.1009,439.42968,376.20323,426.17078,376.20323Z"></path><path class="cls-5" d="M459.97922,288.6975a1.14409,1.14409,0,0,1-1.0959-1.27791c2.54936-16.28579,2.55647-24.58684.04953-31.71858-4.42487-12.575-20.05048-17.12214-33.20438-17.18546a1.106,1.106,0,0,1,.00647-2.21207c13.91261.06683,30.47958,5.0038,35.29065,18.65961,2.64079,7.52155,2.65437,16.10388.04889,32.801A1.11082,1.11082,0,0,1,459.97922,288.6975Z"></path><path class="cls-5" d="M390.90166,288.6975a1.111,1.111,0,0,1-1.09527-.9334c-2.6061-16.69713-2.59178-25.27946.0489-32.801,4.804-13.65581,21.37741-18.59278,35.2828-18.65961a1.10606,1.10606,0,1,1,.01432,2.21207c-13.161.06332-28.78662,4.61049-33.20438,17.18186-2.50694,7.13534-2.50047,15.43639.0489,31.72218a1.11212,1.11212,0,0,1-.92694,1.26433A.8925.8925,0,0,1,390.90166,288.6975Z"></path><path class="cls-5" d="M409.56858,281.55929a1.10672,1.10672,0,0,1-.40062-2.13877,14.99476,14.99476,0,0,1,8.32926-.74068,1.11088,1.11088,0,0,1,.84272,1.32395,1.14629,1.14629,0,0,1-1.32035.83922,12.74677,12.74677,0,0,0-7.05049.64224A1.14169,1.14169,0,0,1,409.56858,281.55929Z"></path><path class="cls-5" d="M443.82655,281.55929a1.03681,1.03681,0,0,1-.443-.09493,11.62055,11.62055,0,0,0-7.19146-.62135,1.13429,1.13429,0,0,1-1.3196-.83922,1.11055,1.11055,0,0,1,.84208-1.32395,13.91693,13.91693,0,0,1,8.55423.76158,1.10523,1.10523,0,0,1-.4422,2.11787Z"></path><path class="cls-5" d="M427.47022,322.25722a17.13365,17.13365,0,0,1-4.83185-.717,1.10353,1.10353,0,0,1-.70918-1.39364,1.13191,1.13191,0,0,1,1.39735-.71267c.04169.01358,5.4216,1.70293,8.87721-.6466,1.81866-1.23909,2.83691-3.44468,3.03325-6.55928a1.10156,1.10156,0,0,1,1.10322-1.03555,1.11416,1.11416,0,0,1,1.10248,1.17651c-.23876,3.83449-1.58722,6.61179-4.00357,8.25512A10.56243,10.56243,0,0,1,427.47022,322.25722Z"></path><path class="cls-5" d="M418.1365,311.58575a1.10118,1.10118,0,0,1-.73718-.28119c-.3862-.34727-3.79991-3.49719-3.90492-6.75923a4.28925,4.28925,0,0,1,1.26423-3.19945,4.76642,4.76642,0,0,1,3.49-1.5275,7.16341,7.16341,0,0,1,3.7648,1.27505c.681-6.089,1.15138-14.636-.08422-16.50726a1.10841,1.10841,0,0,1,1.854-1.21533c2.21927,3.37489.54731,17.22068.18912,19.96276a1.10518,1.10518,0,0,1-.74428.90254,1.11667,1.11667,0,0,1-1.1377-.27037,6.5531,6.5531,0,0,0-3.8417-1.93161,2.60845,2.60845,0,0,0-1.91719.86435,2.042,2.042,0,0,0-.62485,1.57639c.06322,1.97691,2.31049,4.41055,3.167,5.17923a1.106,1.106,0,0,1,.08485,1.56271A1.09334,1.09334,0,0,1,418.1365,311.58575Z"></path><path class="cls-5" d="M664.4015,575.15853a1.10556,1.10556,0,0,1-.24523-2.18407c.49831-.11579,12.21964-2.89313,12.93592-14.53753.18987-3.08658-.59684-5.495-2.33139-7.15266-3.57493-3.42666-10.1199-2.7737-10.16233-2.77009a1.12137,1.12137,0,0,1-1.22181-.98379,1.107,1.107,0,0,1,.983-1.2147c.31576-.03521,7.60576-.75871,11.92488,3.36058,2.233,2.13155,3.24485,5.12321,3.01256,8.89441-.82129,13.32577-14.51593,16.53174-14.65625,16.56335A1.07965,1.07965,0,0,1,664.4015,575.15853Z"></path><path class="cls-5" d="M664.90055,582.2838a1.10742,1.10742,0,0,1-.11222-2.2092c.84219-.08411,20.59791-2.28907,19.23577-21.3565-.42141-5.93438-2.42356-10.4255-5.94875-13.34663-5.569-4.61113-13.1748-3.79281-13.25891-3.7892a1.11927,1.11927,0,0,1-1.22255-.96936,1.10642,1.10642,0,0,1,.96215-1.229c.36541-.03458,8.596-.95144,14.91008,4.27022,4.02361,3.32175,6.29974,8.33638,6.76283,14.90578,1.52389,21.23066-20.9911,23.69591-21.22328,23.72031A1.02662,1.02662,0,0,1,664.90055,582.2838Z"></path><path class="cls-5" d="M641.71818,593.6183c-3.92582,0-23.52042-.22444-23.52042-4.66659a1.11042,1.11042,0,0,1,2.20559-.17905c1.04637,1.096,9.07354,2.63347,21.31483,2.63347,12.57784,0,20.766-1.59431,21.62327-2.69679a.98343.98343,0,0,1,1.07447-.98665,1.19151,1.19151,0,0,1,1.07437,1.229C665.49029,593.39386,645.68568,593.6183,641.71818,593.6183Z"></path><path class="cls-5" d="M619.30745,590.05779a1.10913,1.10913,0,0,1-1.10969-1.10608V538.41516a1.10965,1.10965,0,0,1,2.21928,0v50.53655A1.10856,1.10856,0,0,1,619.30745,590.05779Z"></path><path class="cls-5" d="M664.4015,590.05779a1.10843,1.10843,0,0,1-1.109-1.10608V538.039a1.10927,1.10927,0,0,1,2.21853,0v50.91267A1.10856,1.10856,0,0,1,664.4015,590.05779Z"></path><path class="cls-5" d="M641.8584,543.77715c-.96936,0-23.66064-.05972-23.66064-5.362s22.69128-5.362,23.66064-5.362c.96873,0,23.65268.05971,23.65268,5.362S642.82713,543.77715,641.8584,543.77715Zm-21.406-5.362c.91325,1.17577,8.51891,3.14992,21.406,3.14992,13.21722,0,20.879-2.079,21.45505-3.24124-.57606-.98018-8.23783-3.05849-21.45505-3.05849C628.97127,535.26535,621.36561,537.23865,620.45236,538.41516Z"></path><path class="cls-5" d="M946.93372,579.77252H673.44757a1.106,1.106,0,1,1,0-2.21206H946.93372a1.106,1.106,0,1,1,0,2.21206Z"></path><path class="cls-5" d="M619.30745,579.77252H260.35305a1.106,1.106,0,1,1,0-2.21206h358.9544a1.106,1.106,0,1,1,0,2.21206Z"></path><path class="cls-5" d="M88.657,579.77252H21.12483a1.106,1.106,0,1,1,0-2.21206H88.657a1.106,1.106,0,1,1,0,2.21206Z"></path><path class="cls-5" d="M257.55771,171.54865a1.10857,1.10857,0,0,1-1.10969-1.106V115.98031A27.69449,27.69449,0,0,1,284.11148,88.317H537.71527a1.106,1.106,0,1,1,0,2.21206H284.11148a25.47423,25.47423,0,0,0-25.44418,25.45129v54.46236A1.10848,1.10848,0,0,1,257.55771,171.54865Z"></path><path class="cls-5" d="M379.20122,315.86976H284.11148a1.106,1.106,0,1,1,0-2.21206h95.08974a1.106,1.106,0,1,1,0,2.21206Z"></path><path class="cls-5" d="M601.65889,315.86976H472.45141a1.106,1.106,0,1,1,0-2.21206H601.65889A25.47386,25.47386,0,0,0,627.103,288.21V233.7433a1.10965,1.10965,0,0,1,2.21928,0V288.21A27.69378,27.69378,0,0,1,601.65889,315.86976Z"></path><path class="cls-5" d="M259.93874,583.825a1.10856,1.10856,0,0,1-1.10958-1.10608V534.13773a1.10964,1.10964,0,0,1,2.21927,0V582.7189A1.10906,1.10906,0,0,1,259.93874,583.825Z"></path><path class="cls-5" d="M216.37506,551.08083H97.92674a1.10609,1.10609,0,1,1,0-2.21217H216.37506a1.10609,1.10609,0,1,1,0,2.21217Z"></path><path class="cls-5" d="M216.37506,567.957H97.92674a1.10605,1.10605,0,1,1,0-2.21209H216.37506a1.10605,1.10605,0,1,1,0,2.21209Z"></path><path class="cls-5" d="M260.64071,592.68766a4.04852,4.04852,0,0,1-.44942-.02079l-2.56315.0071H104.80243A16.85346,16.85346,0,0,1,87.96869,575.8467V541.00982a16.8533,16.8533,0,0,1,16.83374-16.82653l155.501-.01443a7.14688,7.14688,0,0,1,4.73342,1.54839,4.67107,4.67107,0,0,1,1.4332,3.55394,5.84739,5.84739,0,0,1-1.76329,4.54717,6.25059,6.25059,0,0,1-4.51545,1.40816l-155.38886.01793a5.77252,5.77252,0,0,0-5.76609,5.769V575.8467a5.77232,5.77232,0,0,0,5.76609,5.76611h155.501a7.23139,7.23139,0,0,1,4.73342,1.54839,4.66829,4.66829,0,0,1,1.4332,3.55033,5.84739,5.84739,0,0,1-1.76329,4.54717A6.17382,6.17382,0,0,1,260.64071,592.68766Zm-.12665-66.31024c-.14744.00361-155.71163.01793-155.71163.01793A14.6284,14.6284,0,0,0,90.188,541.00982V575.8467a14.62849,14.62849,0,0,0,14.61447,14.61521h155.501a4.23977,4.23977,0,0,0,2.92908-.85725,3.734,3.734,0,0,0,1.01826-2.89313,2.5035,2.5035,0,0,0-.7306-1.93808,4.79982,4.79982,0,0,0-3.15353-.94847H104.80243A7.99,7.99,0,0,1,96.817,575.8467V541.01342a7.9935,7.9935,0,0,1,7.98539-7.98177l155.501-.01008a4.29715,4.29715,0,0,0,2.92908-.85725,3.734,3.734,0,0,0,1.01826-2.89313,2.517,2.517,0,0,0-.7306-1.94169A4.72479,4.72479,0,0,0,260.51406,526.37742Z"></path><path class="cls-5" d="M137.44517,520.62924a1.10849,1.10849,0,0,1-1.10958-1.106V488.057a1.1097,1.1097,0,0,1,2.21938,0v31.46623A1.109,1.109,0,0,1,137.44517,520.62924Z"></path><path class="cls-5" d="M245.82917,504.898H157.15125a1.10609,1.10609,0,1,1,0-2.21217h88.67792a1.10609,1.10609,0,1,1,0,2.21217Z"></path><path class="cls-5" d="M253.58661,519.52464c2.83638,0,5.14475-1.99706,5.14475-4.45149V492.5099c0-2.45369-2.30837-4.45149-5.14475-4.45149h-116.419s-3.78336.19633-3.78336-2.58819c0-3.4799,3.78336-3.14557,3.78336-3.14557h116.419c6.47443,0,11.77161,4.58312,11.77161,10.18525v22.564c0,5.60139-5.29718,10.18451-11.77161,10.18451l-116.419.00859s-3.78336.19633-3.78336-2.58744c0-3.48064,3.78336-3.14631,3.78336-3.14631Z"></path><path class="cls-5" d="M70.48125,545.16081a1.12272,1.12272,0,0,1-.56874-.15464,105.04015,105.04015,0,0,1-10.583-7.318,1.10838,1.10838,0,0,1,1.362-1.749,101.79819,101.79819,0,0,0,10.35859,7.16335,1.108,1.108,0,0,1,.37972,1.51742A1.09534,1.09534,0,0,1,70.48125,545.16081ZM50.26243,529.70629a1.09858,1.09858,0,0,1-.74426-.28766c-3.0758-2.79884-6.1732-5.80058-9.2001-8.91879a1.10518,1.10518,0,1,1,1.58721-1.53832c2.99167,3.083,6.05376,6.05027,9.10154,8.8211a1.11157,1.11157,0,0,1,.07765,1.562A1.12369,1.12369,0,0,1,50.26243,529.70629ZM32.50887,511.43637a1.10411,1.10411,0,0,1-.83636-.38248c-2.84423-3.29736-5.5546-6.64711-8.06162-9.95879a1.10786,1.10786,0,0,1,1.7691-1.334c2.47246,3.27572,5.15483,6.5874,7.96459,9.84583a1.10423,1.10423,0,0,1-.83571,1.82947Zm-15.3386-20.33453a1.09883,1.09883,0,0,1-.927-.50553,117.3154,117.3154,0,0,1-6.40464-11.15609,1.10556,1.10556,0,1,1,1.98052-.98315,117.53358,117.53358,0,0,0,6.279,10.93823,1.10547,1.10547,0,0,1-.92779,1.70654ZM6.10985,468.24233a1.10748,1.10748,0,0,1-1.06079-.7831A116.98588,116.98588,0,0,1,1.987,454.97558a1.11182,1.11182,0,0,1,.88525-1.29234,1.09121,1.09121,0,0,1,1.29234.88525A111.10032,111.10032,0,0,0,7.1698,466.81274a1.10953,1.10953,0,0,1-.73707,1.38006A1.032,1.032,0,0,1,6.10985,468.24233Zm-4.68452-24.981a1.10322,1.10322,0,0,1-1.10248-1.02187C.1122,439.44129,0,436.59705,0,433.78454q0-2.20167.09056-4.40048a1.17582,1.17582,0,0,1,1.14491-1.06365,1.10151,1.10151,0,0,1,1.06068,1.14851c-.04889,1.43617-.07764,2.87584-.07764,4.31562,0,2.7564.10575,5.54389.30919,8.28672a1.09979,1.09979,0,0,1-1.01826,1.18659A.677.677,0,0,1,1.42533,443.26135Zm1.04626-25.39083a1.13443,1.13443,0,0,1-1.08879-1.28513,96.20365,96.20365,0,0,1,2.90768-12.53976,1.1088,1.1088,0,0,1,2.12146.64585,94.17337,94.17337,0,0,0-2.85155,12.2521A1.10116,1.10116,0,0,1,2.47159,417.87052ZM9.94424,393.613a1.10618,1.10618,0,0,1-.99735-1.58361,79.78638,79.78638,0,0,1,6.468-11.15609,1.1048,1.1048,0,1,1,1.81218,1.26423,78.56062,78.56062,0,0,0-6.286,10.84691A1.10058,1.10058,0,0,1,9.94424,393.613Zm88.20036-4.70181a17.33462,17.33462,0,0,1-5.15473-.78311,22.34187,22.34187,0,0,1-4.76874-2.14163,1.10885,1.10885,0,0,1,1.13769-1.90362,19.77,19.77,0,0,0,4.29112,1.93162,15.29738,15.29738,0,0,0,7.13548.45312,1.06151,1.06151,0,0,1,1.285.89533,1.10665,1.10665,0,0,1-.89171,1.28152A17.195,17.195,0,0,1,98.1446,388.91122ZM111.369,381.9197a1.09427,1.09427,0,0,1-.59695-.17544,1.10753,1.10753,0,0,1-.3373-1.5275,12.23911,12.23911,0,0,0,1.96622-6.65782,13.82967,13.82967,0,0,0-.758-4.44152,1.177,1.177,0,0,1,.63853-1.4785,1.03142,1.03142,0,0,1,1.3838.56885l-1.03929.3898,1.0888-.246a16.107,16.107,0,0,1,.9054,5.20734,14.53862,14.53862,0,0,1-2.31707,7.85163A1.11408,1.11408,0,0,1,111.369,381.9197Zm-31.53316-4.68379a1.10224,1.10224,0,0,1-.92693-.50266q-.7799-1.20058-1.46778-2.44371a53.02309,53.02309,0,0,1-3.8626-9.40352,1.10516,1.10516,0,1,1,2.10716-.66739,50.77025,50.77025,0,0,0,3.69352,9.00736c.42863.77589.89249,1.54828,1.38367,2.29978a1.10873,1.10873,0,0,1-.323,1.5311A1.09142,1.09142,0,0,1,79.83587,377.23591Zm-55.24906-4.2804a1.10445,1.10445,0,0,1-.73718-1.928,74.452,74.452,0,0,1,10.38667-7.6869,1.10413,1.10413,0,1,1,1.1657,1.8755,73.1171,73.1171,0,0,0-10.0781,7.45462A1.0916,1.0916,0,0,1,24.58681,372.95551Zm21.44064-13.62134a1.10728,1.10728,0,0,1-.47033-2.10992,110.28421,110.28421,0,0,1,11.96009-4.74785,1.10493,1.10493,0,1,1,.68818,2.09995,108.47025,108.47025,0,0,0-11.70691,4.65642A1.14649,1.14649,0,0,1,46.02745,359.33417ZM106.13,358.892a1.0913,1.0913,0,0,1-.78671-.33008,25.96855,25.96855,0,0,0-10.32409-6.32424,1.106,1.106,0,0,1,.717-2.09263,28.06988,28.06988,0,0,1,11.17986,6.86487,1.10141,1.10141,0,0,1-.01366,1.56558A1.0899,1.0899,0,0,1,106.13,358.892Zm-34.7987-5.53381a1.112,1.112,0,0,1-1.07437-.83285q-.137-.54254-.27408-1.09527a1.10634,1.10634,0,0,1-.51274-1.93808,80.20918,80.20918,0,0,0-2.7809-8.71885,1.22831,1.22831,0,0,1,.51994-1.58074,1.01158,1.01158,0,0,1,1.41095.43944l.141.35088a83.2986,83.2986,0,0,1,2.86512,8.98932,65.97315,65.97315,0,0,1,10.44989-.88164l.79393.00721a1.10606,1.10606,0,0,1-.01441,2.21206c-.0136,0-.77952-.00647-.77952-.00647a63.603,63.603,0,0,0-9.88825.81768c.07045.292.141.57606.21789.85725a1.10912,1.10912,0,0,1-.80042,1.34474A1.0508,1.0508,0,0,1,71.33128,353.35815Zm-7.57763-24.29641a1.10838,1.10838,0,0,1-1.07439-.83922,101.552,101.552,0,0,1-2.2826-12.66556,1.0972,1.0972,0,0,1,.96939-1.22541,1.116,1.116,0,0,1,1.22191.973,99.8005,99.8005,0,0,0,2.24017,12.38437,1.11008,1.11008,0,0,1-.80774,1.34124A1.17438,1.17438,0,0,1,63.75365,329.06174Zm-2.97079-25.23269a1.11333,1.11333,0,0,1-1.10967-1.1132,109.63414,109.63414,0,0,1,.822-12.831,1.1384,1.1384,0,0,1,1.229-.96215,1.10362,1.10362,0,0,1,.96151,1.23613,108.22827,108.22827,0,0,0-.79329,12.57073A1.10987,1.10987,0,0,1,60.78286,303.82905Zm3.09731-25.22324c-.85714-.17555-1.22255-.776-1.07437-1.36924a106.46383,106.46383,0,0,1,3.80574-12.28669,1.10381,1.10381,0,1,1,2.06537.77961A106.06953,106.06953,0,0,0,64.95464,277.763,1.10766,1.10766,0,0,1,63.88017,278.60581ZM72.876,254.84016a1.11508,1.11508,0,0,1-.51921-.12941,1.09979,1.09979,0,0,1-.45662-1.49228,96.26174,96.26174,0,0,1,6.75636-10.95254,1.105,1.105,0,1,1,1.79787,1.28512,95.21775,95.21775,0,0,0-6.60172,10.69937A1.10378,1.10378,0,0,1,72.876,254.84016Zm14.76985-20.63662a1.11635,1.11635,0,0,1-.76592-.30559,1.10474,1.10474,0,0,1-.03521-1.56271,88.353,88.353,0,0,1,9.53727-8.652,1.10556,1.10556,0,1,1,1.36213,1.74175,86.27055,86.27055,0,0,0-9.29787,8.4348A1.09894,1.09894,0,0,1,87.64581,234.20354Zm20.01527-15.58383a1.10747,1.10747,0,0,1-.54084-2.07195,85.83463,85.83463,0,0,1,11.679-5.43167,1.09125,1.09125,0,0,1,1.42538.64575,1.10389,1.10389,0,0,1-.63867,1.42535,83.15264,83.15264,0,0,0-11.384,5.29219A1.1118,1.1118,0,0,1,107.66108,218.61971Zm23.72322-8.96132a1.10683,1.10683,0,0,1-.23876-2.18767,97.4209,97.4209,0,0,1,12.72528-1.89566,1.07961,1.07961,0,0,1,1.1938,1.01116,1.105,1.105,0,0,1-1.01115,1.1938,95.21068,95.21068,0,0,0-12.43041,1.85387A1.17,1.17,0,0,1,131.3843,209.65839Zm37.96581-.98665a122.45134,122.45134,0,0,0-12.71881-1.15859,1.10684,1.10684,0,0,1,.08414-2.21206,121.13117,121.13117,0,0,1,12.79579,1.1693,1.10656,1.10656,0,0,1-.16112,2.20135Z"></path><path class="cls-5" d="M426.02334,425.55679a1.10866,1.10866,0,0,1-1.10969-1.10609v-38.703a1.1097,1.1097,0,0,1,2.21938,0v38.703A1.10913,1.10913,0,0,1,426.02334,425.55679Z"></path><path class="cls-5" d="M368.11916,359.8678c-.8774-.19273-1.229-.80039-1.06726-1.39014,1.9942-7.47264,7.28289-10.85762,12.3953-14.13047,3.57483-2.28907,7.2691-4.65578,9.87457-8.44848,6.12345-8.92971,2.261-23.74051,2.21927-23.88858a1.10155,1.10155,0,0,1,.7795-1.35492,1.09025,1.09025,0,0,1,1.35492.7796c.17629.64575,4.1789,15.942-2.52772,25.71445-2.85866,4.16458-6.74926,6.65359-10.50674,9.05912-4.97876,3.18864-9.6776,6.19759-11.45394,12.83813A1.1053,1.1053,0,0,1,368.11916,359.8678Z"></path><path class="cls-5" d="M483.35146,359.8678a1.1053,1.1053,0,0,1-1.0679-.82129c-1.77634-6.64054-6.47518-9.64949-11.45383-12.83813-3.75759-2.40553-7.64808-4.89454-10.50674-9.05912-6.70673-9.77243-2.66148-25.23693-2.486-25.89a1.08549,1.08549,0,0,1,1.35556-.7795,1.1019,1.1019,0,0,1,.7795,1.35481c-.04243.14744-3.95382,15.13442,2.17695,24.06413,2.60537,3.7927,6.29974,6.15941,9.87457,8.44848,5.11241,3.27285,10.401,6.65783,12.39519,14.13047a1.09785,1.09785,0,0,1-.7796,1.35206A1.05051,1.05051,0,0,1,483.35146,359.8678Z"></path><path class="cls-5" d="M535.61543,147.53713H522.00554a1.106,1.106,0,1,1,0-2.21206h13.60989a1.106,1.106,0,1,1,0,2.21206Z"></path><path class="cls-5" d="M477.34659,147.53713H329.61973a1.106,1.106,0,1,1,0-2.21206H477.34659a1.106,1.106,0,1,1,0,2.21206Z"></path><path class="cls-5" d="M535.61543,202.14766H329.61973a1.10609,1.10609,0,1,1,0-2.21216h205.9957a1.10609,1.10609,0,1,1,0,2.21216Z"></path><path class="cls-5" d="M741.74489,381.73418c-.87093-.19347-1.22892-.79753-1.06727-1.39088l7.02323-26.55727A1.12048,1.12048,0,0,1,749.0492,353a1.10439,1.10439,0,0,1,.78608,1.35492l-7.0225,26.55727A1.09973,1.09973,0,0,1,741.74489,381.73418Z"></path><path class="cls-5" d="M841.30913,442.2503c-.17618,0-.35161-.00721-.53426-.01442-3.31454-.17183-5.78626-1.17217-7.35247-2.97724-2.53579-2.91827-2.15606-7.18139-1.88209-10.29238.0698-.78608.133-1.5031.133-2.09995.0209-3.53888-4.32569-11.25389-9.71281-14.07012a1.10589,1.10589,0,1,1,1.02557-1.95962c5.89912,3.083,10.92741,11.39846,10.90652,16.04417-.00721.64935-.0769,1.42535-.14744,2.27888-.25308,2.86874-.56884,6.44,1.34845,8.64492,1.152,1.33477,3.10389,2.08266,5.79411,2.21928a5.3779,5.3779,0,0,0,5.14762-2.34879c3.4973-4.96211,1.87487-15.988-.63917-22.04182-3.88338-9.32938-13.44166-10.72386-17.37458-10.89209-.11943-.00721-.24608-.00721-.36541-.00721-5.46338,0-8.048,5.15123-8.06949,5.20373a1.10853,1.10853,0,0,1-1.9942-.96873c.13375-.274,3.385-6.72825,10.52753-6.44,4.34723.18562,14.94455,1.75183,19.31267,12.255,2.61269,6.27821,4.5443,18.298.4142,24.16552A7.66012,7.66012,0,0,1,841.30913,442.2503Z"></path><path class="cls-5" d="M884.788,317.36193c-.90615-.22147-1.23623-.83921-1.06069-1.426,4.73342-15.77306-3.49719-19.84991-12.20607-24.16553-6.43275-3.18864-13.08347-6.4859-14.26359-14.57278-1.36192-9.34741,3.18875-18.87037,7.58487-28.08116,4.29112-8.98572,8.72977-18.28073,7.62008-27.28363-2.17674-17.60327-36.59667-22.65956-36.94033-22.70846a1.10675,1.10675,0,0,1-.7235-.425c-3.47629-4.55077-16.42675-8.99293-29.46121-8.15012-10.63265.71269-18.6245,4.84555-22.49421,11.63724-10.36577,18.17137-.11932,35.75013-.01442,35.92557a1.10389,1.10389,0,1,1-1.8963,1.13059c-.11222-.18626-11.00441-18.874-.01368-38.15217,4.24879-7.45822,12.87271-11.98821,24.27117-12.74978,12.40951-.85,26.39191,3.1111,31.07643,8.65574,4.3257.67014,36.12552,6.20831,38.38732,24.56233,1.1937,9.646-3.38507,19.23577-7.81641,28.51349-4.44576,9.31941-8.65277,18.12247-7.38853,26.80972,1.01115,6.93477,6.86137,9.83575,13.05536,12.90432,8.72256,4.32643,18.61081,9.22447,13.34386,26.78892A1.11,1.11,0,0,1,884.788,317.36193Z"></path><path class="cls-5" d="M788.44768,300.32762a1.10034,1.10034,0,0,1-.94136-.52642c-7.05771-11.451,1.21533-18.03115,1.29944-18.09447a1.09349,1.09349,0,0,1,1.54468.19632,1.112,1.112,0,0,1-.18912,1.5519c-.28119.218-6.75636,5.47124-.773,15.18766a1.10054,1.10054,0,0,1-.35819,1.52028A1.11364,1.11364,0,0,1,788.44768,300.32762Z"></path><path class="cls-5" d="M902.09923,287.44769a1.10737,1.10737,0,0,1-1.01105-1.5591c1.08084-2.40193,2.81612-6.38385,4.92254-11.72133a1.10979,1.10979,0,0,1,2.06463.81471c-2.12795,5.37641-3.87617,9.39354-4.965,11.81276A1.11406,1.11406,0,0,1,902.09923,287.44769Zm9.41794-23.7124a1.12344,1.12344,0,0,1-.3653-.06333,1.11033,1.11033,0,0,1-.6817-1.41166c1.41888-4.02075,2.78165-8.0731,4.05235-12.05142a1.10609,1.10609,0,0,1,2.10706.67385c-1.27145,3.99625-2.64069,8.07311-4.066,12.11475A1.11336,1.11336,0,0,1,911.51717,263.73529Zm7.71788-24.2856c-.89172-.207-1.229-.81832-1.06716-1.40806,1.13048-3.99274,2.22575-8.12922,3.244-12.28657a1.10656,1.10656,0,1,1,2.14959.52642c-1.02558,4.1861-2.12148,8.34347-3.25907,12.36421A1.10838,1.10838,0,0,1,919.23505,239.44969Zm6.07466-24.74869a1.14456,1.14456,0,0,1-1.08158-1.33106c.86371-4.19268,1.65043-8.39247,2.33149-12.483a1.05646,1.05646,0,0,1,1.27145-.90964,1.10156,1.10156,0,0,1,.906,1.275c-.681,4.11854-1.47489,8.34633-2.34582,12.567A1.10266,1.10266,0,0,1,925.30971,214.701Zm4.17179-25.13128a1.12834,1.12834,0,0,1-1.09527-1.24334c.52642-4.2279.95505-8.47659,1.28513-12.62675a1.12153,1.12153,0,0,1,1.18659-1.01549,1.10673,1.10673,0,0,1,1.01826,1.19094c-.33008,4.18186-.76507,8.46577-1.29945,12.72528A1.10334,1.10334,0,0,1,929.4815,189.56972Zm1.9733-25.39879a1.10486,1.10486,0,0,1-1.10248-1.13769q.08416-3.249.08422-6.52047,0-3.071-.077-6.1523a1.10409,1.10409,0,0,1,1.07437-1.13771,1.196,1.196,0,0,1,1.13059,1.07448q.09483,3.11319.09133,6.21553c0,2.20135-.02811,4.39612-.09854,6.58378A1.10064,1.10064,0,0,1,931.4548,164.17093Zm-.72349-25.44694a1.10421,1.10421,0,0,1-1.10238-1.00819c-.379-4.25591-.89893-8.48381-1.54478-12.56427a1.109,1.109,0,0,1,2.19127-.34376c.64575,4.12935,1.17217,8.40616,1.55836,12.7117a1.10553,1.10553,0,0,1-1.00394,1.20091A.897.897,0,0,1,930.73131,138.724Zm-3.989-25.13553a1.09838,1.09838,0,0,1-1.07447-.8494c-.99026-4.17889-2.128-8.27664-3.39219-12.18517a1.10725,1.10725,0,0,1,2.10717-.68107c1.27791,3.96475,2.43714,8.1221,3.43471,12.35351a1.10651,1.10651,0,0,1-.82214,1.334A1.20313,1.20313,0,0,1,926.74227,113.58846Zm-7.84452-24.19713a1.10461,1.10461,0,0,1-1.01826-.6746c-1.64321-3.87979-3.4764-7.71067-5.46338-11.384a1.109,1.109,0,0,1,1.95177-1.05358c2.01583,3.7403,3.88412,7.63451,5.54824,11.5739a1.10751,1.10751,0,0,1-.58975,1.4506A1.07725,1.07725,0,0,1,918.89775,89.39133Zm-12.07221-22.382a1.12081,1.12081,0,0,1-.91983-.48835c-2.3387-3.47628-4.88085-6.87855-7.55675-10.11259a1.11012,1.11012,0,0,1,1.71364-1.41166c2.71048,3.29,5.29516,6.752,7.68266,10.288a1.10972,1.10972,0,0,1-.302,1.53471A1.08927,1.08927,0,0,1,906.82554,67.00934Z"></path><path class="cls-5" d="M641.844,60.327a1.10619,1.10619,0,0,1-.76517-1.9065c.14032-.13374,3.5534-3.37848,9.81061-8.36074a1.10717,1.10717,0,0,1,1.37645,1.73454c-6.17309,4.909-9.62075,8.1954-9.656,8.22711A1.11939,1.11939,0,0,1,641.844,60.327Zm19.91027-15.97a1.10744,1.10744,0,0,1-.64639-2.005c3.44172-2.46166,7.00871-4.88086,10.60443-7.18786a1.10578,1.10578,0,1,1,1.19455,1.86119c-3.56126,2.289-7.10013,4.68739-10.50674,7.12453A1.10548,1.10548,0,0,1,661.75424,44.357Zm21.44783-13.77885a1.12443,1.12443,0,0,1-.96215-.55517,1.10948,1.10948,0,0,1,.40773-1.50946c3.687-2.12149,7.4719-4.1718,11.25749-6.0963a1.10559,1.10559,0,0,1,.99747,1.97341c-3.74316,1.90711-7.49354,3.94013-11.14538,6.04008A1.10185,1.10185,0,0,1,683.20207,30.57814Zm22.71207-11.53869a1.107,1.107,0,0,1-.44942-2.11787c3.94014-1.73825,7.92206-3.36706,11.85435-4.842a1.10571,1.10571,0,1,1,.77313,2.07184c-3.88413,1.46057-7.83794,3.07218-11.72854,4.79314A1.0876,1.0876,0,0,1,705.91414,19.03945ZM841.80766,14.9626a1.10814,1.10814,0,0,1-.44242-.09133c-3.856-1.67493-7.81641-3.20953-11.78465-4.56509a1.106,1.106,0,0,1,.71628-2.09274c4.02446,1.37285,8.04149,2.92835,11.953,4.62842a1.10721,1.10721,0,0,1-.4422,2.12074ZM729.7639,10.12342a1.10525,1.10525,0,0,1-.32277-2.16316c4.08036-1.24981,8.24493-2.37318,12.36708-3.34254a1.11975,1.11975,0,0,1,1.32745.82553,1.10435,1.10435,0,0,1-.82182,1.33042c-4.08057.955-8.18829,2.06822-12.22707,3.30086A1.02109,1.02109,0,0,1,729.7639,10.12342Zm87.96881-3.367c-4.3609-1.05708-8.52548-1.91359-12.64116-2.58458a1.116,1.116,0,0,1-.91983-1.27144,1.08569,1.08569,0,0,1,1.27145-.91263c4.18547.68108,8.40616,1.5519,12.55631,2.58756a1.10671,1.10671,0,0,1-.26677,2.18109ZM754.555,4.33366a1.10593,1.10593,0,0,1-.17543-2.1985c4.24147-.681,8.51827-1.20812,12.71806-1.55909a1.10626,1.10626,0,0,1,.18265,2.205c-4.14368.348-8.36437.86435-12.54984,1.53821A.95906.95906,0,0,1,754.555,4.33366Zm38.07082-1.66124q-5.98354-.45853-11.95278-.46024h-.76528a1.1061,1.1061,0,1,1,0-2.21218h.76528c4.03146,0,8.08318.15466,12.037.46385a1.1059,1.1059,0,0,1-.08422,2.20857Z"></path><path class="cls-5" d="M876.374,53.19527a18.084,18.084,0,1,1,18.0844-18.08441A18.10907,18.10907,0,0,1,876.374,53.19527Zm0-33.95588a15.87191,15.87191,0,1,0,15.86512,15.87147A15.89075,15.89075,0,0,0,876.374,19.23939Z"></path><g><circle class="cls-2" cx="241.66981" cy="244.66979" r="61.65596"></circle><path class="cls-1" d="M221.9256,245.883a6.52167,6.52167,0,0,0-9.223-.0058l-.00581.0058-2.51453,2.515a6.519,6.519,0,0,0-.00671,9.21929l.00671.0067,18.3829,18.385a6.522,6.522,0,0,0,9.22349.00245l.00244-.00245,37.84636-36.92181a6.528,6.528,0,0,0,0-9.22593l-2.51747-2.51746a6.5262,6.5262,0,0,0-9.22886,0l-30.71318,29.794Z"></path><g><path class="cls-5" d="M242.23708,301.013a55.88416,55.88416,0,0,1-54.161-43.27758.5996.5996,0,0,1,.45328-.71664l.00172-.00038a.60983.60983,0,0,1,.715.45288,54.31737,54.31737,0,1,0,6.45355-39.99819.59763.59763,0,0,1-1.02353-.61723,55.51621,55.51621,0,1,1,47.561,84.15715Z"></path><path class="cls-5" d="M242.23712,301.2627h0A56.13676,56.13676,0,0,1,187.83184,257.79a.84965.84965,0,0,1,1.65674-.37793,54.06679,54.06679,0,0,0,106.80469-11.92334,54.06643,54.06643,0,0,0-54.06641-54.05615h-.00976a54.3524,54.3524,0,0,0-46.30323,26.16943.84766.84766,0,0,1-1.45263-.874,55.7663,55.7663,0,1,1,47.77588,84.53467Zm-53.582-44.00684a.34383.34383,0,0,0-.335.42481,55.2691,55.2691,0,1,0,82.42579-59.52735,55.26588,55.26588,0,0,0-75.85547,18.83155.34748.34748,0,0,0,.5957.35791,54.85507,54.85507,0,0,1,46.731-26.41016h.00976a54.56641,54.56641,0,1,1-53.22509,66.59326A.35617.35617,0,0,0,188.65509,257.25586Z"></path></g><g><path class="cls-5" d="M231.941,271.51215a7.06525,7.06525,0,0,1-5.03617-2.08782l-18.38291-18.3846a7.11681,7.11681,0,0,1-.006-10.06469l.006-.006,2.51415-2.51578a7.1133,7.1133,0,0,1,10.05972-.013l.013.013,10.84008,10.838,30.28736-29.38524a7.1264,7.1264,0,0,1,10.06854.00581l2.51789,2.5204a7.14032,7.14032,0,0,1,0,10.07066L236.973,269.43058A7.07556,7.07556,0,0,1,231.941,271.51215ZM216.0726,237.56161a5.893,5.893,0,0,0-4.19187,1.73636l-2.51371,2.51621a5.917,5.917,0,0,0-.01088,8.36788l.01088.01088,18.38247,18.38666a5.92957,5.92957,0,0,0,8.383-.00206l10.03838-9.79329L273.9821,231.652a5.94384,5.94384,0,0,0-.00412-8.37507l-2.51834-2.51784a5.932,5.932,0,0,0-8.38294,0L232.3594,250.5627a.59575.59575,0,0,1-.841-.0083L220.26411,239.298a5.89288,5.89288,0,0,0-4.19151-1.73639Z"></path><path class="cls-5" d="M231.91973,271.76221a7.36132,7.36132,0,0,1-5.19238-2.16162L208.345,251.21631a7.36641,7.36641,0,0,1-.00586-10.418l2.52-2.522a7.37263,7.37263,0,0,1,10.41357-.01318l10.67871,10.67724,30.11035-29.21338a7.38833,7.38833,0,0,1,10.41993.00831l2.51757,2.52a7.40694,7.40694,0,0,1,.00049,10.42383l-37.85205,36.93018a7.36975,7.36975,0,0,1-5.187,2.15283Zm-15.852-35.144a6.83382,6.83382,0,0,0-4.855,2.01172l-2.51416,2.51611a6.8666,6.8666,0,0,0,0,9.7168l18.38282,18.38476a6.8597,6.8597,0,0,0,4.83837,2.01465h.041a6.868,6.868,0,0,0,4.835-2.00781l37.852-36.93018a6.90506,6.90506,0,0,0-.00244-9.71582l-2.51709-2.51953a6.88671,6.88671,0,0,0-9.71582-.00537l-30.46582,29.55908-11.01465-11.01269A6.86742,6.86742,0,0,0,216.06768,236.61817ZM231.94073,270.561a6.1605,6.1605,0,0,1-4.36816-1.80469l-18.38233-18.38672a6.17831,6.17831,0,0,1,0-8.73242l2.51367-2.51611a6.18257,6.18257,0,0,1,4.3545-1.80957h.02832a6.18269,6.18269,0,0,1,4.35449,1.81006l11.2539,11.25585a.34618.34618,0,0,0,.48926.00635l30.71778-29.80371a6.19,6.19,0,0,1,8.73437.00244l2.51807,2.51758a6.21057,6.21057,0,0,1,.00537,8.728l-37.85254,36.92822A6.15671,6.15671,0,0,1,231.94073,270.561Zm-15.88232-32.74951a5.68012,5.68012,0,0,0-4.00049,1.66259l-2.51416,2.51661a5.67395,5.67395,0,0,0-.01026,8.01464l18.39258,18.39747a5.68693,5.68693,0,0,0,8.02979-.002l37.85156-36.92773a5.70733,5.70733,0,0,0-.00685-8.02L271.283,220.936a5.69049,5.69049,0,0,0-8.02979,0L232.5335,250.7417a.84468.84468,0,0,1-1.19336-.0122l-11.25293-11.25489a5.67938,5.67938,0,0,0-4.00048-1.66308h-.02832Z"></path></g></g><path class="cls-5" d="M584.51326,75.637H700.82079a24.72376,24.72376,0,0,1,24.72376,24.72376v71.18744a24.72374,24.72374,0,0,1-24.72374,24.72374H584.51326a24.72367,24.72367,0,0,1-24.72367-24.72367V100.36065A24.72367,24.72367,0,0,1,584.51326,75.637Z"></path><path class="cls-1" d="M610.53876,164.559a.96883.96883,0,0,1-.7064-.3049l-26.20555-27.73248a.9721.9721,0,0,1,.01743-1.35645L609.85033,108.962a.9738.9738,0,1,1,1.37685,1.37748l-25.5369,25.53447,25.555,27.04408a.973.973,0,0,1-.70648,1.64093Z"></path><path class="cls-1" d="M624.38584,164.559a.9729.9729,0,0,1-.80612-1.51789l36.36083-53.935a.97276.97276,0,1,1,1.61153,1.09l-36.3602,53.935A.9701.9701,0,0,1,624.38584,164.559Z"></path><path class="cls-1" d="M670.83349,164.559a.973.973,0,0,1-.70649-1.64093l25.555-27.04408-25.5369-25.53447a.9738.9738,0,0,1,1.37685-1.37748L697.728,135.16512a.97209.97209,0,0,1,.01743,1.35645l-26.20555,27.73248A.96883.96883,0,0,1,670.83349,164.559Z"></path></g></g></g></svg> 